<?xml version="1.0" standalone="no"?>
<!DOCTYPE svg PUBLIC "-//W3C//DTD SVG 20010904//EN"
 "http://www.w3.org/TR/2001/REC-SVG-20010904/DTD/svg10.dtd">
<svg version="1.0" xmlns="http://www.w3.org/2000/svg"
 width="400.000000pt" height="400.000000pt" viewBox="0 0 400.000000 400.000000"
 preserveAspectRatio="xMidYMid meet">

<g transform="translate(0.000000,400.000000) scale(0.100000,-0.100000)"
fill="#000000" stroke="none">
<path d="M110 3490 l0 -400 400 0 400 0 0 400 0 400 -400 0 -400 0 0 -400z
m690 0 l0 -290 -290 0 -290 0 0 290 0 290 290 0 290 0 0 -290z"/>
<path d="M340 3490 l0 -170 170 0 170 0 0 170 0 170 -170 0 -170 0 0 -170z"/>
<path d="M1370 3835 l0 -55 55 0 55 0 0 -115 0 -115 60 0 60 0 0 -60 0 -60 55
0 55 0 0 60 0 60 -55 0 -55 0 0 115 0 115 -60 0 -60 0 0 55 0 55 -55 0 -55 0
0 -55z"/>
<path d="M1710 3835 l0 -55 55 0 55 0 0 -175 0 -175 60 0 60 0 0 -55 0 -55
-170 0 -170 0 0 -60 0 -60 -60 0 -60 0 0 -55 0 -55 -55 0 -55 0 0 55 0 55 -60
0 -60 0 0 -55 0 -55 -55 0 -55 0 0 115 0 115 55 0 55 0 0 55 0 55 60 0 60 0 0
-55 0 -55 55 0 55 0 0 55 0 55 -55 0 -55 0 0 115 0 115 -60 0 -60 0 0 60 0 60
-115 0 -115 0 0 -60 0 -60 60 0 60 0 0 -55 0 -55 -60 0 -60 0 0 -60 0 -60 60
0 60 0 0 -55 0 -55 -60 0 -60 0 0 -115 0 -115 60 0 60 0 0 -55 0 -55 -170 0
-170 0 0 -60 0 -60 -60 0 -60 0 0 60 0 60 -285 0 -285 0 0 -115 0 -115 55 0
55 0 0 55 0 55 115 0 115 0 0 -55 0 -55 -55 0 -55 0 0 -60 0 -60 -115 0 -115
0 0 -115 0 -115 55 0 55 0 0 -110 0 -110 -55 0 -55 0 0 -175 0 -175 170 0 170
0 0 115 0 115 60 0 60 0 0 -170 0 -170 55 0 55 0 0 -115 0 -115 115 0 115 0 0
-55 0 -55 -55 0 -55 0 0 -60 0 -60 -60 0 -60 0 0 60 0 60 -55 0 -55 0 0 55 0
55 -60 0 -60 0 0 55 0 55 -55 0 -55 0 0 60 0 60 -115 0 -115 0 0 -345 0 -345
55 0 55 0 0 230 0 230 60 0 60 0 0 -55 0 -55 115 0 115 0 0 -60 0 -60 -60 0
-60 0 0 -115 0 -115 60 0 60 0 0 60 0 60 115 0 115 0 0 -60 0 -60 55 0 55 0 0
60 0 60 55 0 55 0 0 55 0 55 60 0 60 0 0 60 0 60 170 0 170 0 0 55 0 55 60 0
60 0 0 -115 0 -115 -115 0 -115 0 0 -55 0 -55 55 0 55 0 0 -60 0 -60 -55 0
-55 0 0 -55 0 -55 -60 0 -60 0 0 55 0 55 -115 0 -115 0 0 -115 0 -115 60 0 60
0 0 60 0 60 55 0 55 0 0 -115 0 -115 -115 0 -115 0 0 -285 0 -285 115 0 115 0
0 55 0 55 -55 0 -55 0 0 60 0 60 55 0 55 0 0 115 0 115 60 0 60 0 0 -60 0 -60
55 0 55 0 0 60 0 60 -55 0 -55 0 0 55 0 55 115 0 115 0 0 -170 0 -170 55 0 55
0 0 -60 0 -60 -55 0 -55 0 0 -55 0 -55 170 0 170 0 0 55 0 55 -60 0 -60 0 0
60 0 60 230 0 230 0 0 55 0 55 115 0 115 0 0 60 0 60 -115 0 -115 0 0 -60 0
-60 -115 0 -115 0 0 60 0 60 60 0 60 0 0 55 0 55 55 0 55 0 0 55 0 55 -55 0
-55 0 0 60 0 60 115 0 115 0 0 -115 0 -115 225 0 225 0 0 -55 0 -55 -55 0 -55
0 0 -60 0 -60 -60 0 -60 0 0 -55 0 -55 -110 0 -110 0 0 -60 0 -60 110 0 110 0
0 -55 0 -55 175 0 175 0 0 55 0 55 55 0 55 0 0 -55 0 -55 115 0 115 0 0 55 0
55 -55 0 -55 0 0 115 0 115 -60 0 -60 0 0 -55 0 -55 -55 0 -55 0 0 55 0 55
-60 0 -60 0 0 60 0 60 230 0 230 0 0 -60 0 -60 115 0 115 0 0 -55 0 -55 -60 0
-60 0 0 -60 0 -60 115 0 115 0 0 -55 0 -55 60 0 60 0 0 55 0 55 -60 0 -60 0 0
60 0 60 60 0 60 0 0 55 0 55 -115 0 -115 0 0 60 0 60 -60 0 -60 0 0 55 0 55
115 0 115 0 0 -55 0 -55 115 0 115 0 0 110 0 110 -55 0 -55 0 0 60 0 60 55 0
55 0 0 115 0 115 -55 0 -55 0 0 -115 0 -115 -60 0 -60 0 0 55 0 55 -55 0 -55
0 0 60 0 60 55 0 55 0 0 55 0 55 60 0 60 0 0 60 0 60 55 0 55 0 0 55 0 55 -55
0 -55 0 0 55 0 55 -60 0 -60 0 0 60 0 60 60 0 60 0 0 55 0 55 55 0 55 0 0 60
0 60 -55 0 -55 0 0 55 0 55 -60 0 -60 0 0 60 0 60 60 0 60 0 0 55 0 55 55 0
55 0 0 55 0 55 -115 0 -115 0 0 -110 0 -110 -55 0 -55 0 0 -60 0 -60 55 0 55
0 0 -170 0 -170 -55 0 -55 0 0 115 0 115 -60 0 -60 0 0 55 0 55 -110 0 -110 0
0 60 0 60 -60 0 -60 0 0 55 0 55 60 0 60 0 0 55 0 55 170 0 170 0 0 60 0 60
55 0 55 0 0 55 0 55 60 0 60 0 0 60 0 60 55 0 55 0 0 55 0 55 -55 0 -55 0 0
60 0 60 -60 0 -60 0 0 -60 0 -60 -55 0 -55 0 0 60 0 60 -60 0 -60 0 0 -60 0
-60 60 0 60 0 0 -55 0 -55 -115 0 -115 0 0 -115 0 -115 -55 0 -55 0 0 170 0
170 55 0 55 0 0 60 0 60 -55 0 -55 0 0 -60 0 -60 -60 0 -60 0 0 60 0 60 -55 0
-55 0 0 -60 0 -60 55 0 55 0 0 -55 0 -55 -55 0 -55 0 0 -60 0 -60 -115 0 -115
0 0 60 0 60 55 0 55 0 0 55 0 55 -55 0 -55 0 0 -55 0 -55 -60 0 -60 0 0 -60 0
-60 -110 0 -110 0 0 -55 0 -55 -60 0 -60 0 0 -60 0 -60 -55 0 -55 0 0 60 0 60
-60 0 -60 0 0 55 0 55 -55 0 -55 0 0 60 0 60 115 0 115 0 0 55 0 55 55 0 55 0
0 -55 0 -55 115 0 115 0 0 115 0 115 115 0 115 0 0 170 0 170 55 0 55 0 0
-115 0 -115 60 0 60 0 0 115 0 115 -60 0 -60 0 0 55 0 55 60 0 60 0 0 60 0 60
-60 0 -60 0 0 55 0 55 -55 0 -55 0 0 -55 0 -55 -60 0 -60 0 0 55 0 55 -55 0
-55 0 0 60 0 60 170 0 170 0 0 55 0 55 -455 0 -455 0 0 -55 0 -55 -60 0 -60 0
0 55 0 55 -55 0 -55 0 0 -55z m460 -115 l0 -60 55 0 55 0 0 60 0 60 60 0 60 0
0 -60 0 -60 -60 0 -60 0 0 -115 0 -115 -55 0 -55 0 0 -55 0 -55 115 0 115 0 0
55 0 55 55 0 55 0 0 60 0 60 55 0 55 0 0 -60 0 -60 60 0 60 0 0 -55 0 -55 -60
0 -60 0 0 55 0 55 -55 0 -55 0 0 -55 0 -55 -55 0 -55 0 0 -115 0 -115 55 0 55
0 0 55 0 55 55 0 55 0 0 -55 0 -55 -55 0 -55 0 0 -55 0 -55 -55 0 -55 0 0 -60
0 -60 -60 0 -60 0 0 60 0 60 60 0 60 0 0 55 0 55 -60 0 -60 0 0 55 0 55 -55 0
-55 0 0 -110 0 -110 -60 0 -60 0 0 -60 0 -60 -55 0 -55 0 0 -55 0 -55 -60 0
-60 0 0 55 0 55 60 0 60 0 0 115 0 115 -60 0 -60 0 0 -55 0 -55 -170 0 -170 0
0 55 0 55 60 0 60 0 0 55 0 55 55 0 55 0 0 -55 0 -55 55 0 55 0 0 55 0 55 60
0 60 0 0 -55 0 -55 55 0 55 0 0 170 0 170 60 0 60 0 0 60 0 60 -115 0 -115 0
0 115 0 115 115 0 115 0 0 -60z m-920 -230 l0 -60 -55 0 -55 0 0 60 0 60 55 0
55 0 0 -60z m0 -570 l0 -60 -55 0 -55 0 0 60 0 60 55 0 55 0 0 -60z m-570
-115 l0 -55 60 0 60 0 0 55 0 55 110 0 110 0 0 -55 0 -55 -110 0 -110 0 0 -60
0 -60 110 0 110 0 0 -55 0 -55 -110 0 -110 0 0 -60 0 -60 55 0 55 0 0 -55 0
-55 -55 0 -55 0 0 -55 0 -55 110 0 110 0 0 -115 0 -115 -55 0 -55 0 0 -60 0
-60 55 0 55 0 0 -55 0 -55 60 0 60 0 0 115 0 115 55 0 55 0 0 55 0 55 -55 0
-55 0 0 170 0 170 55 0 55 0 0 60 0 60 60 0 60 0 0 55 0 55 -115 0 -115 0 0
60 0 60 170 0 170 0 0 55 0 55 115 0 115 0 0 -170 0 -170 -55 0 -55 0 0 -60 0
-60 55 0 55 0 0 -110 0 -110 115 0 115 0 0 55 0 55 -60 0 -60 0 0 170 0 170
60 0 60 0 0 -55 0 -55 55 0 55 0 0 -60 0 -60 60 0 60 0 0 -55 0 -55 -60 0 -60
0 0 -55 0 -55 115 0 115 0 0 55 0 55 60 0 60 0 0 -55 0 -55 55 0 55 0 0 -60 0
-60 55 0 55 0 0 -55 0 -55 -110 0 -110 0 0 55 0 55 -60 0 -60 0 0 -55 0 -55
-55 0 -55 0 0 55 0 55 -285 0 -285 0 0 -55 0 -55 -60 0 -60 0 0 55 0 55 -55 0
-55 0 0 -115 0 -115 170 0 170 0 0 60 0 60 115 0 115 0 0 -60 0 -60 -115 0
-115 0 0 -170 0 -170 -55 0 -55 0 0 55 0 55 -60 0 -60 0 0 -55 0 -55 -115 0
-115 0 0 55 0 55 60 0 60 0 0 115 0 115 -60 0 -60 0 0 -55 0 -55 -55 0 -55 0
0 -115 0 -115 -115 0 -115 0 0 55 0 55 -55 0 -55 0 0 60 0 60 -60 0 -60 0 0
55 0 55 60 0 60 0 0 60 0 60 -60 0 -60 0 0 55 0 55 -55 0 -55 0 0 400 0 400
55 0 55 0 0 -55z m2970 -115 l0 -60 -55 0 -55 0 0 -55 0 -55 -60 0 -60 0 0 55
0 55 60 0 60 0 0 60 0 60 55 0 55 0 0 -60z m-3200 -115 l0 -55 -55 0 -55 0 0
-60 0 -60 55 0 55 0 0 -170 0 -170 -55 0 -55 0 0 170 0 170 -60 0 -60 0 0 60
0 60 60 0 60 0 0 55 0 55 55 0 55 0 0 -55z m2170 -115 l0 -60 60 0 60 0 0 60
0 60 115 0 115 0 0 -60 0 -60 55 0 55 0 0 60 0 60 60 0 60 0 0 -60 0 -60 -60
0 -60 0 0 -55 0 -55 -55 0 -55 0 0 -115 0 -115 -60 0 -60 0 0 60 0 60 -115 0
-115 0 0 110 0 110 -110 0 -110 0 0 60 0 60 110 0 110 0 0 -60z m580 -455 l0
-55 110 0 110 0 0 -60 0 -60 -110 0 -110 0 0 60 0 60 -60 0 -60 0 0 -60 0 -60
-55 0 -55 0 0 -55 0 -55 170 0 170 0 0 -60 0 -60 -55 0 -55 0 0 -55 0 -55 -60
0 -60 0 0 -55 0 -55 115 0 115 0 0 55 0 55 55 0 55 0 0 115 0 115 60 0 60 0 0
-60 0 -60 55 0 55 0 0 -170 0 -170 -55 0 -55 0 0 115 0 115 -60 0 -60 0 0
-115 0 -115 -110 0 -110 0 0 -55 0 -55 -60 0 -60 0 0 115 0 115 -55 0 -55 0 0
-115 0 -115 -60 0 -60 0 0 55 0 55 -55 0 -55 0 0 -55 0 -55 -60 0 -60 0 0 -60
0 -60 -55 0 -55 0 0 60 0 60 55 0 55 0 0 115 0 115 115 0 115 0 0 55 0 55 115
0 115 0 0 55 0 55 -230 0 -230 0 0 -55 0 -55 -225 0 -225 0 0 55 0 55 -60 0
-60 0 0 -55 0 -55 -55 0 -55 0 0 -55 0 -55 285 0 285 0 0 -60 0 -60 -55 0 -55
0 0 -115 0 -115 -60 0 -60 0 0 60 0 60 -115 0 -115 0 0 -60 0 -60 -55 0 -55 0
0 -55 0 -55 -60 0 -60 0 0 -60 0 -60 -55 0 -55 0 0 -55 0 -55 -55 0 -55 0 0
55 0 55 55 0 55 0 0 60 0 60 -115 0 -115 0 0 -60 0 -60 -55 0 -55 0 0 60 0 60
55 0 55 0 0 55 0 55 115 0 115 0 0 -55 0 -55 55 0 55 0 0 115 0 115 115 0 115
0 0 55 0 55 -55 0 -55 0 0 60 0 60 -60 0 -60 0 0 55 0 55 60 0 60 0 0 55 0 55
55 0 55 0 0 60 0 60 60 0 60 0 0 55 0 55 115 0 115 0 0 -55 0 -55 55 0 55 0 0
-60 0 -60 55 0 55 0 0 115 0 115 175 0 175 0 0 60 0 60 55 0 55 0 0 55 0 55
60 0 60 0 0 -55z m-2180 -685 l0 -60 -55 0 -55 0 0 -55 0 -55 -55 0 -55 0 0
55 0 55 55 0 55 0 0 60 0 60 55 0 55 0 0 -60z m690 -115 l0 -55 -55 0 -55 0 0
55 0 55 55 0 55 0 0 -55z m1140 -230 l0 -55 -55 0 -55 0 0 -60 0 -60 -115 0
-115 0 0 60 0 60 115 0 115 0 0 55 0 55 55 0 55 0 0 -55z m460 -115 l0 -170
-170 0 -170 0 0 170 0 170 170 0 170 0 0 -170z m230 55 l0 -115 -60 0 -60 0 0
115 0 115 60 0 60 0 0 -115z m-1370 -170 l0 -55 -60 0 -60 0 0 -55 0 -55 -55
0 -55 0 0 -60 0 -60 -115 0 -115 0 0 60 0 60 115 0 115 0 0 110 0 110 115 0
115 0 0 -55z m1600 0 l0 -55 -60 0 -60 0 0 55 0 55 60 0 60 0 0 -55z m-920
-340 l0 -55 60 0 60 0 0 -60 0 -60 -115 0 -115 0 0 115 0 115 55 0 55 0 0 -55z"/>
<path d="M1480 2690 l0 -60 60 0 60 0 0 60 0 60 -60 0 -60 0 0 -60z"/>
<path d="M1370 2345 l0 -55 -60 0 -60 0 0 -115 0 -115 60 0 60 0 0 115 0 115
55 0 55 0 0 55 0 55 -55 0 -55 0 0 -55z"/>
<path d="M680 2120 l0 -60 60 0 60 0 0 -55 0 -55 55 0 55 0 0 55 0 55 -55 0
-55 0 0 60 0 60 -60 0 -60 0 0 -60z"/>
<path d="M800 1775 l0 -55 55 0 55 0 0 55 0 55 -55 0 -55 0 0 -55z"/>
<path d="M2740 2345 l0 -55 55 0 55 0 0 55 0 55 -55 0 -55 0 0 -55z"/>
<path d="M3080 860 l0 -60 60 0 60 0 0 60 0 60 -60 0 -60 0 0 -60z"/>
<path d="M3080 3490 l0 -400 400 0 400 0 0 400 0 400 -400 0 -400 0 0 -400z
m690 0 l0 -290 -285 0 -285 0 0 290 0 290 285 0 285 0 0 -290z"/>
<path d="M3310 3490 l0 -170 170 0 170 0 0 170 0 170 -170 0 -170 0 0 -170z"/>
<path d="M3310 2235 l0 -55 55 0 55 0 0 55 0 55 -55 0 -55 0 0 -55z"/>
<path d="M110 520 l0 -400 400 0 400 0 0 400 0 400 -400 0 -400 0 0 -400z
m690 -5 l0 -285 -290 0 -290 0 0 285 0 285 290 0 290 0 0 -285z"/>
<path d="M340 520 l0 -170 170 0 170 0 0 170 0 170 -170 0 -170 0 0 -170z"/>
<path d="M2050 175 l0 -55 60 0 60 0 0 55 0 55 -60 0 -60 0 0 -55z"/>
</g>
</svg>
