<svg width="16" height="16" viewBox="0 0 16 16" fill="none" xmlns="http://www.w3.org/2000/svg">
<path fill-rule="evenodd" clip-rule="evenodd" d="M12.2829 3.71713C12.4391 3.87334 12.4391 4.12661 12.2829 4.28282L4.28294 12.2828C4.12673 12.439 3.87346 12.439 3.71725 12.2828C3.56105 12.1266 3.56105 11.8733 3.71725 11.7171L11.7173 3.71713C11.8735 3.56092 12.1267 3.56092 12.2829 3.71713Z" fill="#005BB3"/>
<path fill-rule="evenodd" clip-rule="evenodd" d="M5.1001 3.99998C5.1001 3.77906 5.27918 3.59998 5.5001 3.59998H12.0001C12.221 3.59998 12.4001 3.77906 12.4001 3.99998V10.5C12.4001 10.7209 12.221 10.9 12.0001 10.9C11.7792 10.9 11.6001 10.7209 11.6001 10.5V4.39998H5.5001C5.27918 4.39998 5.1001 4.22089 5.1001 3.99998Z" fill="#005BB3"/>
</svg>
