<svg width="24" height="25" viewBox="0 0 24 25" fill="none" xmlns="http://www.w3.org/2000/svg">
<path d="M9 15.069C9.62132 15.069 10.125 14.5653 10.125 13.944C10.125 13.3226 9.62132 12.819 9 12.819C8.37868 12.819 7.875 13.3226 7.875 13.944C7.875 14.5653 8.37868 15.069 9 15.069Z" fill="white"/>
<path d="M15 15.069C15.6213 15.069 16.125 14.5653 16.125 13.944C16.125 13.3226 15.6213 12.819 15 12.819C14.3787 12.819 13.875 13.3226 13.875 13.944C13.875 14.5653 14.3787 15.069 15 15.069Z" fill="white"/>
<path d="M6.97461 7.94405C8.60047 7.43449 10.2958 7.18145 11.9996 7.19405C13.7034 7.18145 15.3988 7.43449 17.0246 7.94405" stroke="white" stroke-width="1.4" stroke-linecap="round" stroke-linejoin="round"/>
<path d="M17.0246 16.944C15.3988 17.4535 13.7034 17.7066 11.9996 17.694C10.2958 17.7066 8.60047 17.4535 6.97461 16.944" stroke="white" stroke-width="1.4" stroke-linecap="round" stroke-linejoin="round"/>
<path d="M14.5316 17.516L15.666 19.766C15.739 19.9194 15.8631 20.0427 16.0171 20.1145C16.1711 20.1864 16.3453 20.2024 16.5098 20.1597C18.8066 19.5972 20.7941 18.6222 22.2379 17.366C22.3467 17.27 22.4258 17.1447 22.4657 17.0052C22.5055 16.8656 22.5046 16.7175 22.4629 16.5785L19.2848 5.966C19.2538 5.85739 19.1979 5.75756 19.1213 5.67452C19.0448 5.59148 18.9499 5.52755 18.8441 5.48787C17.9462 5.1195 17.0177 4.83089 16.0691 4.62537C15.8869 4.58545 15.6963 4.61404 15.5337 4.70569C15.3712 4.79733 15.2481 4.94562 15.1879 5.12225L14.4473 7.36287" stroke="white" stroke-width="1.4" stroke-linecap="round" stroke-linejoin="round"/>
<path d="M9.46909 17.516L8.33472 19.766C8.26173 19.9194 8.13758 20.0427 7.98361 20.1145C7.82964 20.1864 7.65545 20.2024 7.49097 20.1597C5.19409 19.5972 3.20659 18.6222 1.76284 17.366C1.654 17.27 1.57495 17.1447 1.53508 17.0052C1.4952 16.8656 1.49616 16.7175 1.53784 16.5785L4.71597 5.966C4.7469 5.85739 4.80288 5.75756 4.8794 5.67452C4.95593 5.59148 5.05087 5.52755 5.15659 5.48787C6.05449 5.1195 6.98308 4.83089 7.93159 4.62537C8.11387 4.58545 8.30447 4.61404 8.46701 4.70569C8.62955 4.79733 8.75266 4.94562 8.81284 5.12225L9.55347 7.36287" stroke="white" stroke-width="1.4" stroke-linecap="round" stroke-linejoin="round"/>
<path d="M9 15.069C9.62132 15.069 10.125 14.5653 10.125 13.944C10.125 13.3226 9.62132 12.819 9 12.819C8.37868 12.819 7.875 13.3226 7.875 13.944C7.875 14.5653 8.37868 15.069 9 15.069Z" fill="white"/>
<path d="M15 15.069C15.6213 15.069 16.125 14.5653 16.125 13.944C16.125 13.3226 15.6213 12.819 15 12.819C14.3787 12.819 13.875 13.3226 13.875 13.944C13.875 14.5653 14.3787 15.069 15 15.069Z" fill="white"/>
<path fill-rule="evenodd" clip-rule="evenodd" d="M11.9944 7.89408C10.3634 7.88202 8.7404 8.12426 7.18395 8.61206C6.81504 8.72768 6.42226 8.52235 6.30664 8.15345C6.19102 7.78454 6.39635 7.39176 6.76525 7.27614C8.45888 6.74534 10.2248 6.4815 11.9996 6.49408C13.7744 6.4815 15.5403 6.74534 17.2339 7.27614C17.6029 7.39176 17.8082 7.78454 17.6926 8.15345C17.5769 8.52235 17.1842 8.72768 16.8153 8.61206C15.2588 8.12426 13.6358 7.88202 12.0048 7.89408L11.9944 7.89416L11.9944 7.89408Z" fill="white"/>
<path fill-rule="evenodd" clip-rule="evenodd" d="M6.30664 16.7346C6.42226 16.3657 6.81504 16.1604 7.18395 16.276C8.7404 16.7638 10.3634 17.006 11.9944 16.994L12.0048 16.9939L12.0048 16.994C13.6358 17.006 15.2588 16.7638 16.8153 16.276C17.1842 16.1604 17.5769 16.3657 17.6926 16.7346C17.8082 17.1035 17.6029 17.4963 17.2339 17.6119C15.5403 18.1427 13.7744 18.4066 11.9996 18.394C10.2248 18.4066 8.45888 18.1427 6.76525 17.6119C6.39635 17.4963 6.19102 17.1035 6.30664 16.7346Z" fill="white"/>
<path fill-rule="evenodd" clip-rule="evenodd" d="M15.1899 4.09598C15.502 3.92 15.868 3.865 16.218 3.94144C17.2035 4.15501 18.1684 4.45466 19.1016 4.83692C19.3052 4.91535 19.4881 5.03964 19.6361 5.20019C19.7856 5.36239 19.8952 5.55713 19.9565 5.76899L23.1334 16.3775C23.2135 16.6447 23.2154 16.9293 23.1387 17.1975C23.0621 17.4658 22.9102 17.7064 22.701 17.891L22.6974 17.8941C21.1539 19.2371 19.0605 20.2553 16.6801 20.8388C16.3597 20.9205 16.0208 20.8888 15.7211 20.7489C15.4226 20.6096 15.1813 20.3716 15.0379 20.0752L13.9066 17.8312C13.7325 17.486 13.8713 17.065 14.2165 16.891C14.5617 16.717 14.9826 16.8557 15.1567 17.2009L16.2911 19.4509L16.2981 19.4653C16.3013 19.4719 16.3066 19.4772 16.3131 19.4802C16.3197 19.4833 16.3272 19.484 16.3342 19.4822L16.3432 19.4798C18.555 18.9382 20.4352 18.0067 21.7784 16.838L22.2379 17.366L21.7748 16.8411C21.7833 16.8336 21.7895 16.8238 21.7926 16.8129C21.7957 16.802 21.7956 16.7904 21.7924 16.7796L18.6115 6.15779C18.6105 6.1545 18.6089 6.15146 18.6066 6.14894C18.6043 6.14643 18.6014 6.14449 18.5982 6.14329C18.5916 6.1408 18.585 6.13822 18.5784 6.13554C17.7186 5.78276 16.8293 5.50636 15.9209 5.30955L15.9194 5.30921C15.9051 5.30609 15.8902 5.30833 15.8775 5.31549C15.8652 5.32243 15.8558 5.33352 15.8509 5.34674L15.1119 7.58261C14.9906 7.94968 14.5946 8.14888 14.2276 8.02755C13.8605 7.90622 13.6613 7.5103 13.7826 7.14323L14.5253 4.89652C14.6409 4.55708 14.8775 4.27211 15.1899 4.09598Z" fill="white"/>
<path fill-rule="evenodd" clip-rule="evenodd" d="M8.12302 5.31549C8.11031 5.30833 8.0954 5.30609 8.08115 5.30921L8.07963 5.30955C7.17126 5.50636 6.28198 5.78276 5.42209 6.13554C5.41555 6.13822 5.40897 6.1408 5.40236 6.14329C5.39915 6.14449 5.39628 6.14643 5.39396 6.14894C5.39164 6.15146 5.38994 6.15448 5.389 6.15778L5.38641 6.16688L5.38635 6.16686L2.20822 16.7794L2.20816 16.7796C2.20491 16.7904 2.20483 16.802 2.20795 16.8129C2.21097 16.8235 2.21685 16.833 2.22494 16.8404C3.56798 18.008 5.44707 18.9386 7.65728 19.4799L7.66636 19.4821L7.66634 19.4822C7.67337 19.484 7.68082 19.4833 7.6874 19.4802C7.69398 19.4772 7.69928 19.4719 7.7024 19.4653L7.70947 19.4509L8.84384 17.2009C9.01789 16.8557 9.43882 16.717 9.78403 16.891C10.1292 17.065 10.268 17.486 10.094 17.8312L8.96258 20.0752C8.8192 20.3716 8.57796 20.6096 8.27944 20.7489C7.97969 20.8888 7.64081 20.9205 7.3204 20.8388C4.93999 20.2553 2.8466 19.2371 1.30315 17.8941L1.29954 17.891C1.09036 17.7064 0.938451 17.4658 0.861815 17.1975C0.785198 16.9294 0.787024 16.6449 0.867072 16.3777C0.867092 16.3777 0.867112 16.3776 0.867132 16.3775L4.04406 5.76901C4.10529 5.55715 4.21497 5.3624 4.36446 5.20019C4.51242 5.03964 4.69533 4.91535 4.89897 4.83692C5.83231 4.45457 6.79741 4.15488 7.78317 3.94129C8.13301 3.86507 8.49869 3.92011 8.81061 4.09598C9.12299 4.27211 9.35958 4.55708 9.47524 4.89653L9.47731 4.9026L9.47728 4.90261L10.2179 7.14323C10.3392 7.5103 10.14 7.90622 9.77296 8.02755C9.4059 8.14888 9.00997 7.94968 8.88864 7.58261L8.14959 5.34674C8.14473 5.33351 8.13532 5.32243 8.12302 5.31549Z" fill="white"/>
</svg>
