<svg width="24" height="25" viewBox="0 0 24 25" fill="none" xmlns="http://www.w3.org/2000/svg">
<path d="M12.0005 8.69431C12.0005 6.63181 13.7349 4.91619 15.7974 4.94431C16.5197 4.95265 17.2242 5.16942 17.8262 5.56857C18.4283 5.96772 18.9022 6.53225 19.1911 7.19431H22.5005L19.4724 10.2224C19.277 13.2642 17.9305 16.1174 15.7066 18.2019C13.4828 20.2865 10.5486 21.4458 7.50051 21.4443C4.50051 21.4443 3.75051 20.3193 3.75051 20.3193C3.75051 20.3193 6.75051 19.1943 8.25051 16.9443C8.25051 16.9443 2.25051 13.9443 3.75051 5.69431C3.75051 5.69431 7.50051 9.44431 12.0005 10.1943V8.69431Z" stroke="white" stroke-width="1.4" stroke-linecap="round" stroke-linejoin="round"/>
</svg>
