<svg width="24" height="25" viewBox="0 0 24 25" fill="none" xmlns="http://www.w3.org/2000/svg">
<path fill-rule="evenodd" clip-rule="evenodd" d="M11.9998 9.39402C10.3153 9.39402 8.9498 10.7595 8.9498 12.444C8.9498 14.1285 10.3153 15.494 11.9998 15.494C13.6843 15.494 15.0498 14.1285 15.0498 12.444C15.0498 10.7595 13.6843 9.39402 11.9998 9.39402ZM7.5498 12.444C7.5498 9.98635 9.54214 7.99402 11.9998 7.99402C14.4575 7.99402 16.4498 9.98635 16.4498 12.444C16.4498 14.9017 14.4575 16.894 11.9998 16.894C9.54214 16.894 7.5498 14.9017 7.5498 12.444Z" fill="white"/>
<path fill-rule="evenodd" clip-rule="evenodd" d="M7.8748 4.51902C5.77612 4.51902 4.0748 6.22034 4.0748 8.31902V16.569C4.0748 18.6677 5.77612 20.369 7.8748 20.369H16.1248C18.2235 20.369 19.9248 18.6677 19.9248 16.569V8.31902C19.9248 6.22034 18.2235 4.51902 16.1248 4.51902H7.8748ZM2.6748 8.31902C2.6748 5.44714 5.00292 3.11902 7.8748 3.11902H16.1248C18.9967 3.11902 21.3248 5.44714 21.3248 8.31902V16.569C21.3248 19.4409 18.9967 21.769 16.1248 21.769H7.8748C5.00292 21.769 2.6748 19.4409 2.6748 16.569V8.31902Z" fill="white"/>
<path d="M16.875 8.69397C17.4963 8.69397 18 8.19029 18 7.56897C18 6.94765 17.4963 6.44397 16.875 6.44397C16.2537 6.44397 15.75 6.94765 15.75 7.56897C15.75 8.19029 16.2537 8.69397 16.875 8.69397Z" fill="white"/>
</svg>
