<svg width="24" height="25" viewBox="0 0 24 25" fill="none" xmlns="http://www.w3.org/2000/svg">
<path d="M15 12.444L10.5 9.44397V15.444L15 12.444Z" stroke="white" stroke-width="1.4" stroke-linecap="round" stroke-linejoin="round"/>
<path d="M2.25 12.4439C2.25 15.2376 2.54062 16.8689 2.75625 17.7126C2.81571 17.9416 2.92813 18.1533 3.08447 18.3308C3.2408 18.5083 3.43666 18.6466 3.65625 18.7345C6.79688 19.9345 12 19.9064 12 19.9064C12 19.9064 17.2031 19.9345 20.3438 18.7345C20.5633 18.6466 20.7592 18.5083 20.9155 18.3308C21.0719 18.1533 21.1843 17.9416 21.2438 17.7126C21.4594 16.8689 21.75 15.2376 21.75 12.4439C21.75 9.65013 21.4594 8.01888 21.2438 7.17513C21.1843 6.94619 21.0719 6.73443 20.9155 6.55693C20.7592 6.37943 20.5633 6.24115 20.3438 6.15325C17.2031 4.95325 12 4.98138 12 4.98138C12 4.98138 6.79688 4.95325 3.65625 6.15325C3.43666 6.24115 3.2408 6.37943 3.08447 6.55693C2.92813 6.73443 2.81571 6.94619 2.75625 7.17513C2.54062 8.01888 2.25 9.65013 2.25 12.4439Z" stroke="white" stroke-width="1.4" stroke-linecap="round" stroke-linejoin="round"/>
</svg>
