<svg width="24" height="25" viewBox="0 0 24 25" fill="none" xmlns="http://www.w3.org/2000/svg">
<path fill-rule="evenodd" clip-rule="evenodd" d="M4.1248 4.51902C4.09719 4.51902 4.0748 4.5414 4.0748 4.56902V20.319C4.0748 20.3466 4.09719 20.369 4.1248 20.369H19.8748C19.9024 20.369 19.9248 20.3466 19.9248 20.319V4.56902C19.9248 4.5414 19.9024 4.51902 19.8748 4.51902H4.1248ZM2.6748 4.56902C2.6748 3.76821 3.32399 3.11902 4.1248 3.11902H19.8748C20.6756 3.11902 21.3248 3.76821 21.3248 4.56902V20.319C21.3248 21.1198 20.6756 21.769 19.8748 21.769H4.1248C3.32399 21.769 2.6748 21.1198 2.6748 20.319V4.56902Z" fill="white"/>
<path fill-rule="evenodd" clip-rule="evenodd" d="M11.2498 10.244C11.6364 10.244 11.9498 10.5574 11.9498 10.944V16.944C11.9498 17.3306 11.6364 17.644 11.2498 17.644C10.8632 17.644 10.5498 17.3306 10.5498 16.944V10.944C10.5498 10.5574 10.8632 10.244 11.2498 10.244Z" fill="white"/>
<path fill-rule="evenodd" clip-rule="evenodd" d="M8.2498 10.244C8.6364 10.244 8.9498 10.5574 8.9498 10.944V16.944C8.9498 17.3306 8.6364 17.644 8.2498 17.644C7.86321 17.644 7.5498 17.3306 7.5498 16.944V10.944C7.5498 10.5574 7.86321 10.244 8.2498 10.244Z" fill="white"/>
<path fill-rule="evenodd" clip-rule="evenodd" d="M13.8748 11.644C13.3643 11.644 12.8746 11.8468 12.5136 12.2078C12.1526 12.5688 11.9498 13.0585 11.9498 13.569C11.9498 13.9556 11.6364 14.269 11.2498 14.269C10.8632 14.269 10.5498 13.9556 10.5498 13.569C10.5498 12.6872 10.9001 11.8414 11.5237 11.2179C12.1472 10.5943 12.993 10.244 13.8748 10.244C14.7566 10.244 15.6024 10.5943 16.2259 11.2179C16.8495 11.8414 17.1998 12.6872 17.1998 13.569V16.944C17.1998 17.3306 16.8864 17.644 16.4998 17.644C16.1132 17.644 15.7998 17.3306 15.7998 16.944V13.569C15.7998 13.0585 15.597 12.5688 15.236 12.2078C14.875 11.8468 14.3853 11.644 13.8748 11.644Z" fill="white"/>
<path d="M8.25 9.06897C8.87132 9.06897 9.375 8.56529 9.375 7.94397C9.375 7.32265 8.87132 6.81897 8.25 6.81897C7.62868 6.81897 7.125 7.32265 7.125 7.94397C7.125 8.56529 7.62868 9.06897 8.25 9.06897Z" fill="white"/>
</svg>
